<svg width="81" height="70" viewBox="0 0 81 70" fill="none" xmlns="http://www.w3.org/2000/svg">
<path d="M0.632181 4.0833C0.454104 3.87225 0.480838 3.5568 0.691895 3.37872L4.1312 0.476795C4.34225 0.298717 4.6577 0.325449 4.83578 0.536503C5.01385 0.747556 4.98712 1.06301 4.77607 1.24109L1.71891 3.82058L4.2984 6.87774C4.47648 7.08879 4.44974 7.40424 4.23869 7.58232C4.02764 7.76039 3.71219 7.73366 3.53411 7.52261L0.632181 4.0833ZM79.5196 69.3234C78.0304 58.655 73.064 43.6328 61.1464 30.6608C49.2381 17.699 30.3581 6.74935 0.972106 4.25908L1.05655 3.26265C30.6708 5.77227 49.7909 16.8227 61.8828 29.9843C73.9653 43.1358 78.999 58.3603 80.51 69.1851L79.5196 69.3234Z" fill="white"/>
</svg>
